<svg width="165" height="34" viewBox="0 0 165 34" fill="none" xmlns="http://www.w3.org/2000/svg">
<path d="M65.8525 7.18622H61.9354L56.8521 16.4557L51.739 7.18622H47.8219L55.1179 19.8047V28.1173H58.5565V19.8047L65.8525 7.18622ZM77.5225 7.18622H62.2727V10.4754H68.1932V28.1173H71.6319V10.4754H77.5225V7.18622ZM79.4673 17.2929C79.4673 16.2165 80.484 15.7082 81.6501 15.7082C82.8761 15.7082 83.9226 16.2464 84.4609 17.4126L87.1819 15.8876C86.1353 13.9141 84.102 12.7778 81.6501 12.7778C78.6002 12.7778 76.1781 14.542 76.1781 17.3527C76.1781 22.7051 84.2216 21.21 84.2216 23.8713C84.2216 25.0674 83.1153 25.5458 81.68 25.5458C80.0354 25.5458 78.8394 24.7384 78.3609 23.3929L75.5801 25.0075C76.5369 27.1605 78.6899 28.506 81.68 28.506C84.9094 28.506 87.5108 26.8913 87.5108 23.9012C87.5108 18.3694 79.4673 20.014 79.4673 17.2929ZM101.443 13.1665V15.2895C100.307 13.7347 98.5426 12.7778 96.2103 12.7778C92.1437 12.7778 88.7648 16.1866 88.7648 20.6419C88.7648 25.0674 92.1437 28.506 96.2103 28.506C98.5426 28.506 100.307 27.5492 101.443 25.9644V28.1173H104.672V13.1665H101.443ZM96.7186 25.4262C94.0275 25.4262 91.9942 23.4228 91.9942 20.6419C91.9942 17.8611 94.0275 15.8577 96.7186 15.8577C99.4098 15.8577 101.443 17.8611 101.443 20.6419C101.443 23.4228 99.4098 25.4262 96.7186 25.4262ZM117.317 13.1665V21.1801C117.317 24.2301 115.643 25.486 113.52 25.486C111.486 25.486 110.171 24.2899 110.171 22.0174V13.1665H106.941V22.3463C106.941 26.2335 109.334 28.506 112.683 28.506C114.716 28.506 116.331 27.7585 117.317 26.2036V28.1173H120.547V13.1665H117.317ZM126.356 15.6783V13.1665H123.127V28.1173H126.356V20.5821C126.356 17.2331 128.838 16.2464 130.961 16.3959V12.8974C129.077 12.8974 127.253 13.645 126.356 15.6783ZM142.975 13.1665V21.1801C142.975 24.2301 141.301 25.486 139.178 25.486C137.145 25.486 135.829 24.2899 135.829 22.0174V13.1665H132.6V22.3463C132.6 26.2335 134.992 28.506 138.341 28.506C140.374 28.506 141.989 27.7585 142.975 26.2036V28.1173H146.205V13.1665H142.975ZM151.835 17.2929C151.835 16.2165 152.852 15.7082 154.018 15.7082C155.244 15.7082 156.29 16.2464 156.828 17.4126L159.55 15.8876C158.503 13.9141 156.47 12.7778 154.018 12.7778C150.968 12.7778 148.546 14.542 148.546 17.3527C148.546 22.7051 156.589 21.21 156.589 23.8713C156.589 25.0674 155.483 25.5458 154.048 25.5458C152.403 25.5458 151.207 24.7384 150.729 23.3929L147.948 25.0075C148.905 27.1605 151.057 28.506 154.048 28.506C157.277 28.506 159.878 26.8913 159.878 23.9012C159.878 18.3694 151.835 20.014 151.835 17.2929Z" fill="#2E2E2C"/>
<path fill-rule="evenodd" clip-rule="evenodd" d="M13.3052 7.21066C16.8098 2.28598 22.3935 -0.464246 25.0407 0.0645487C26.7384 0.403678 25.7096 2.24123 24.483 4.32086C24.163 4.86348 23.8495 5.36368 23.5677 5.81343C22.7694 7.08737 22.2248 7.9565 22.5023 8.23818C26.9024 4.00742 29.7316 3.53623 32.0892 3.53623C34.4236 3.53623 33.3256 5.21836 32.1249 7.05788L32.0892 7.11263C31.9152 7.37927 31.7354 7.64322 31.5622 7.89748C30.8874 8.88829 30.3129 9.73186 30.5705 10.013C33.1077 8.20734 35.7345 7.77117 36.9687 8.02637C38.203 8.28156 38.5655 8.81657 36.8623 11.4502L35.2342 13.8931L35.3089 14.0134C35.8866 14.942 36.7675 16.3581 36.7675 18.6143C36.7675 23.1418 33.3086 27.6425 31.3728 29.6547C31.2049 29.8293 30.9734 29.9228 30.7312 29.9228H27.1354C26.8643 29.9228 26.6543 29.688 26.6629 29.417C26.8173 24.5935 21.6958 24.792 18.2808 29.718C18.1935 29.844 18.0496 29.9228 17.8963 29.9228H14.5148C14.2714 29.9228 14.0361 29.8277 13.8741 29.646C12.5592 28.1713 11.3592 25.6753 11.0564 24.6C9.61065 26.832 5.64947 28.0595 2.81841 26.1495C-0.543358 23.8816 -0.521395 20.0237 0.932208 17.6681L3.88617 19.3467C3.45149 21.0585 4.0954 22.2373 5.33187 22.2373C7.11699 22.2374 7.81768 20.0737 8.81966 16.9797C9.72618 14.1804 10.8793 10.6196 13.3052 7.21066ZM15.4691 19.5037C16.4542 17.2785 16.4543 15.1217 15.4694 14.6862C14.4845 14.2508 12.8875 15.7017 11.9024 17.9269C11.657 18.4814 11.4726 19.0316 11.3495 19.552H15.4476L15.4691 19.5037ZM22.7265 14.6862C23.7114 15.1217 23.7113 17.2785 22.7262 19.5037L22.7046 19.552H18.6065C18.7297 19.0316 18.914 18.4814 19.1595 17.9269C20.1445 15.7017 21.7415 14.2508 22.7265 14.6862Z" fill="#2E2E2C"/>
</svg>
